<?xml version="1.0" encoding="utf-8"?>
<!-- Generator: Adobe Illustrator 27.3.1, SVG Export Plug-In . SVG Version: 6.00 Build 0)  -->
<svg version="1.1" id="Layer_1" xmlns="http://www.w3.org/2000/svg" xmlns:xlink="http://www.w3.org/1999/xlink" x="0px" y="0px"
	 viewBox="0 0 841.89 595.28" style="enable-background:new 0 0 841.89 595.28;" xml:space="preserve">
<style type="text/css">
	.st0{fill:url(#SVGID_1_);}
	.st1{fill:#F99B1C;}
</style>
<g>
	<g>
		<path d="M111.25,413.48c0-25.25,14.61-36.37,33.67-36.37c11.12,0,20.49,4.29,26.37,12.55c5.88-8.26,15.09-12.55,26.37-12.55
			c19.06,0,33.67,11.12,33.67,36.37v44.15H207.5v-44.15c0-10.48-5.08-14.14-12.23-14.14c-6.99,0-12.07,3.65-12.07,14.14v44.15
			h-23.82v-44.15c0-10.48-5.08-14.14-12.07-14.14c-7.15,0-12.23,3.65-12.23,14.14v44.15h-23.82V413.48z"/>
		<path d="M243.72,419.36c0-25.25,17.47-42.25,42.41-42.25c24.62,0,41.77,16.36,41.77,42.09v38.44h-21.92v-13.02
			c-4.13,9.69-13.02,15.09-24.3,15.09C264.21,459.7,243.72,446.67,243.72,419.36z M304.07,418.4c0-11.28-7.31-19.06-18.11-19.06
			s-18.11,7.78-18.11,19.06c0,11.28,7.31,19.06,18.11,19.06S304.07,429.68,304.07,418.4z"/>
		<path d="M343.46,413c0-24.46,14.29-35.9,35.26-35.9s35.1,11.28,35.26,36.05v0.48h-23.82V413c0-10.48-4.76-13.66-11.44-13.66
			s-11.44,3.18-11.44,13.66v44.63h-23.82V413z"/>
		<path d="M416.37,379.17h25.57l17.31,55.75l17.31-55.75h24.94l-28.11,78.46h-28.91L416.37,379.17z"/>
		<path d="M504.68,418.4c0-23.82,17.47-41.3,42.25-41.3s41.77,17.47,41.77,41.3v6.67h-59.24c1.91,9.21,8.89,13.34,17.47,13.34
			c6.83,0,11.91-1.43,14.93-5.72h24.62c-5.08,16.2-20.01,27-39.55,27C522.15,459.7,504.68,442.23,504.68,418.4z M564.24,409.98
			c-2.7-8.1-9.05-11.59-17.31-11.59s-14.61,3.65-17,11.59H564.24z"/>
		<path d="M600.3,356.78c0-8.74,6.51-15.25,15.25-15.25c8.74,0,15.25,6.51,15.25,15.25s-6.51,15.25-15.25,15.25
			C606.81,372.02,600.3,365.51,600.3,356.78z M603.63,379.17h23.82v78.46h-23.82V379.17z"/>
		<path d="M645.56,426.66v-75.29h23.82v27.8h37.17v21.44h-37.17v26.05c0,8.26,3.81,10.8,9.05,10.8s9.05-2.54,9.05-10.8v-2.38h23.82
			v2.38c0,22.39-13.34,33.04-32.88,33.04S645.56,449.06,645.56,426.66z"/>
	</g>
	<g>
		<path d="M244.75,493.75c2.96,0,5.42,0.74,7.39,2.22c1.97,1.48,3.44,3.33,4.41,5.55c0.97,2.22,1.46,4.62,1.46,7.2
			c0,2.58-0.49,4.98-1.46,7.2s-2.44,4.07-4.41,5.55c-1.97,1.48-4.43,2.22-7.39,2.22c-1.95,0-3.79-0.49-5.52-1.46
			c-1.73-0.97-3.07-2.38-4-4.22v5.36h-4.98v-44.27h4.98v20.4c0.94-1.84,2.27-3.25,4-4.25C240.96,494.25,242.8,493.75,244.75,493.75z
			 M243.34,520.27c2.09-0.04,3.82-0.62,5.2-1.76c1.37-1.14,2.41-2.56,3.11-4.28c0.7-1.71,1.06-3.56,1.06-5.55s-0.34-3.82-1.03-5.52
			c-0.69-1.7-1.72-3.11-3.11-4.25c-1.39-1.14-3.13-1.7-5.22-1.7c-0.9,0-1.79,0.15-2.65,0.46c-0.87,0.31-1.66,0.76-2.38,1.35
			c-0.72,0.6-1.35,1.32-1.89,2.17c-0.54,0.85-0.94,1.78-1.19,2.79v9.47c0.5,2.06,1.52,3.71,3.03,4.95
			C239.77,519.65,241.47,520.27,243.34,520.27z"/>
		<path d="M289.62,512.91c-0.11,1.48-0.51,2.88-1.19,4.19c-0.69,1.32-1.62,2.46-2.79,3.44c-1.17,0.97-2.54,1.75-4.09,2.33
			c-1.55,0.58-3.23,0.87-5.03,0.87c-3.07,0-5.63-0.74-7.69-2.22c-2.06-1.48-3.6-3.33-4.63-5.55c-1.03-2.22-1.54-4.63-1.54-7.22
			s0.51-5.01,1.54-7.22c1.03-2.22,2.57-4.07,4.63-5.55c2.06-1.48,4.62-2.22,7.69-2.22c2.31,0,4.33,0.46,6.06,1.38
			s3.12,2.09,4.17,3.52c1.05,1.43,1.75,2.99,2.11,4.68c0.36,1.7,0.32,3.3-0.11,4.82h-20.46c-0.04,1.48,0.13,2.91,0.49,4.3
			c0.36,1.39,0.92,2.62,1.68,3.71c0.76,1.08,1.7,1.96,2.81,2.62c1.12,0.67,2.42,1,3.9,1c1.08,0,2.07-0.18,2.98-0.54
			c0.9-0.36,1.71-0.85,2.41-1.46c0.7-0.61,1.28-1.33,1.73-2.17c0.45-0.83,0.78-1.73,1-2.71H289.62z M276.79,497.32
			c-1.12,0-2.14,0.21-3.06,0.62c-0.92,0.42-1.72,0.97-2.41,1.65c-0.69,0.69-1.24,1.49-1.68,2.41s-0.76,1.9-0.97,2.95h15.75
			c-0.07-0.97-0.32-1.91-0.73-2.81c-0.42-0.9-0.96-1.71-1.62-2.44c-0.67-0.72-1.44-1.3-2.33-1.73
			C278.85,497.54,277.87,497.32,276.79,497.32z"/>
		<path d="M313.48,494.13h5.03l-11.26,29.22l-2.81,7.47c-0.61,1.52-1.25,2.77-1.92,3.76c-0.67,0.99-1.35,1.78-2.06,2.35
			c-0.7,0.58-1.42,0.97-2.14,1.19c-0.72,0.22-1.44,0.33-2.16,0.33c-0.43,0-0.87-0.04-1.3-0.11s-0.85-0.16-1.24-0.27v-3.19
			c1.23,0.29,2.42,0.07,3.57-0.65c1.15-0.72,2.09-2.17,2.81-4.33l2.44-6.55l-11.26-29.22h4.98l8.66,22.95L313.48,494.13z"/>
		<path d="M334.59,493.75c3.21,0,5.88,0.74,8.01,2.22c2.13,1.48,3.72,3.33,4.79,5.55c1.06,2.22,1.6,4.63,1.6,7.22
			s-0.53,5.01-1.6,7.22c-1.06,2.22-2.66,4.07-4.79,5.55c-2.13,1.48-4.8,2.22-8.01,2.22c-3.21,0-5.88-0.74-8.01-2.22
			c-2.13-1.48-3.73-3.33-4.79-5.55c-1.06-2.22-1.6-4.63-1.6-7.22s0.53-5.01,1.6-7.22c1.06-2.22,2.66-4.07,4.79-5.55
			C328.71,494.49,331.38,493.75,334.59,493.75z M334.59,519.62c2.06,0,3.76-0.53,5.11-1.6c1.35-1.06,2.37-2.41,3.06-4.03
			c0.69-1.62,1.02-3.37,1-5.25c-0.02-1.88-0.36-3.62-1.03-5.22c-0.67-1.6-1.69-2.95-3.06-4.03c-1.37-1.08-3.07-1.62-5.09-1.62
			c-2.02,0-3.72,0.53-5.09,1.6c-1.37,1.06-2.39,2.4-3.06,4c-0.67,1.61-1,3.36-1,5.25c0,1.89,0.34,3.64,1.03,5.25
			c0.69,1.61,1.71,2.95,3.06,4.03C330.88,519.08,332.57,519.62,334.59,519.62z"/>
		<path d="M360.3,499.92c0.5-1.01,1.13-1.9,1.87-2.68c0.74-0.78,1.56-1.42,2.46-1.95c0.9-0.52,1.86-0.92,2.87-1.19
			c1.01-0.27,2.02-0.41,3.03-0.41c1.33,0,2.64,0.23,3.92,0.68c1.28,0.45,2.42,1.15,3.41,2.08c0.99,0.94,1.79,2.12,2.38,3.54
			c0.6,1.43,0.89,3.09,0.89,5.01v18.35h-5.03v-17.21c0-1.55-0.22-2.9-0.65-4.03c-0.43-1.14-1.01-2.07-1.73-2.81
			c-0.72-0.74-1.54-1.29-2.46-1.65c-0.92-0.36-1.87-0.54-2.84-0.54c-0.9,0-1.79,0.14-2.65,0.43c-0.87,0.29-1.67,0.72-2.41,1.3
			c-0.74,0.58-1.38,1.29-1.92,2.14c-0.54,0.85-0.92,1.81-1.14,2.9v19.48h-4.98v-29.22h4.98V499.92z"/>
		<path d="M415.17,479.08v44.27h-5.09V518c-0.94,1.84-2.26,3.25-3.98,4.22c-1.71,0.97-3.54,1.46-5.49,1.46
			c-2.96,0-5.42-0.74-7.39-2.22c-1.97-1.48-3.44-3.33-4.41-5.55s-1.46-4.62-1.46-7.2c0-2.58,0.5-4.98,1.49-7.2
			c0.99-2.22,2.47-4.07,4.44-5.55c1.97-1.48,4.41-2.22,7.33-2.22c1.95,0,3.78,0.5,5.49,1.49c1.71,0.99,3.04,2.41,3.98,4.25v-20.4
			H415.17z M410.09,504.03c-0.25-1.05-0.64-1.98-1.16-2.81c-0.52-0.83-1.15-1.55-1.87-2.17c-0.72-0.61-1.51-1.08-2.35-1.41
			c-0.85-0.32-1.74-0.49-2.68-0.49c-2.09,0-3.83,0.58-5.22,1.73c-1.39,1.16-2.43,2.58-3.11,4.28c-0.69,1.7-1.03,3.54-1.03,5.52
			s0.34,3.83,1.03,5.55c0.69,1.71,1.72,3.14,3.11,4.28c1.39,1.14,3.13,1.72,5.22,1.76c1.88,0,3.56-0.62,5.06-1.87
			c1.5-1.24,2.5-2.9,3-4.95V504.03z"/>
		<path d="M443.64,492.07c0-1.52,0.19-2.76,0.57-3.73c0.38-0.97,0.87-1.74,1.49-2.3c0.61-0.56,1.31-0.96,2.08-1.19
			c0.78-0.23,1.56-0.35,2.35-0.35c0.5,0,1.01,0.05,1.52,0.14c0.5,0.09,0.97,0.19,1.41,0.3v3.25c-1.26-0.33-2.31-0.16-3.14,0.49
			c-0.83,0.65-1.25,1.79-1.25,3.41v2h2.92v3.19h-2.92v26.09h-5.03v-26.09h-2.49v-3.19h2.49V492.07z"/>
		<path d="M483.53,494.13v29.22h-5.03v-5.79c-0.47,1.01-1.07,1.9-1.81,2.68c-0.74,0.78-1.55,1.43-2.43,1.95
			c-0.88,0.52-1.81,0.92-2.79,1.19c-0.97,0.27-1.97,0.41-2.98,0.41c-1.3,0-2.57-0.23-3.82-0.68c-1.25-0.45-2.35-1.15-3.33-2.08
			c-0.97-0.94-1.75-2.12-2.33-3.54c-0.58-1.42-0.87-3.09-0.87-5.01v-18.35h4.98v17.21c0,1.55,0.21,2.89,0.62,4
			c0.42,1.12,0.97,2.05,1.68,2.79c0.7,0.74,1.51,1.29,2.41,1.65c0.9,0.36,1.82,0.54,2.76,0.54c0.87,0,1.72-0.14,2.57-0.43
			c0.85-0.29,1.63-0.72,2.35-1.3c0.72-0.58,1.34-1.29,1.87-2.14c0.52-0.85,0.89-1.81,1.11-2.9v-19.43H483.53z"/>
		<path d="M497.33,515.99c0,1.62,0.41,2.76,1.25,3.41c0.83,0.65,1.88,0.81,3.14,0.49v3.19c-0.43,0.11-0.9,0.21-1.41,0.3
			c-0.51,0.09-1.03,0.13-1.57,0.13c-0.79,0-1.57-0.11-2.33-0.32c-0.76-0.22-1.44-0.61-2.06-1.19s-1.11-1.34-1.49-2.3
			c-0.38-0.96-0.57-2.19-0.57-3.71v-18.73h-2.27v-3.19c1.01-0.29,1.79-0.87,2.35-1.76c0.56-0.88,0.93-1.9,1.11-3.06h3.84v4.82h2.92
			v3.19h-2.92V515.99z"/>
		<path d="M532.56,494.13v29.22h-5.03v-5.79c-0.47,1.01-1.07,1.9-1.81,2.68c-0.74,0.78-1.55,1.43-2.43,1.95
			c-0.88,0.52-1.81,0.92-2.79,1.19c-0.97,0.27-1.97,0.41-2.98,0.41c-1.3,0-2.57-0.23-3.82-0.68c-1.25-0.45-2.35-1.15-3.33-2.08
			c-0.97-0.94-1.75-2.12-2.33-3.54c-0.58-1.42-0.87-3.09-0.87-5.01v-18.35h4.98v17.21c0,1.55,0.21,2.89,0.62,4
			c0.42,1.12,0.97,2.05,1.68,2.79c0.7,0.74,1.51,1.29,2.41,1.65c0.9,0.36,1.82,0.54,2.76,0.54c0.87,0,1.72-0.14,2.57-0.43
			c0.85-0.29,1.63-0.72,2.35-1.3c0.72-0.58,1.34-1.29,1.87-2.14c0.52-0.85,0.89-1.81,1.11-2.9v-19.43H532.56z"/>
		<path d="M545.44,499.54c0.94-1.91,2.29-3.36,4.06-4.33c1.77-0.97,3.61-1.46,5.52-1.46c0.94,0,1.85,0.11,2.73,0.32
			c0.88,0.22,1.74,0.56,2.57,1.03l-1.68,3.68c-0.72-0.5-1.51-0.87-2.38-1.08c-0.87-0.22-1.71-0.33-2.54-0.33
			c-0.94,0-1.86,0.14-2.76,0.41c-0.9,0.27-1.72,0.66-2.46,1.16c-0.74,0.51-1.38,1.15-1.92,1.92c-0.54,0.78-0.92,1.65-1.14,2.62
			v19.86h-4.98v-29.22h4.98V499.54z"/>
		<path d="M589.82,512.91c-0.11,1.48-0.51,2.88-1.19,4.19c-0.69,1.32-1.62,2.46-2.79,3.44c-1.17,0.97-2.54,1.75-4.09,2.33
			c-1.55,0.58-3.23,0.87-5.03,0.87c-3.07,0-5.63-0.74-7.68-2.22s-3.6-3.33-4.63-5.55c-1.03-2.22-1.54-4.63-1.54-7.22
			s0.51-5.01,1.54-7.22c1.03-2.22,2.57-4.07,4.63-5.55c2.06-1.48,4.62-2.22,7.68-2.22c2.31,0,4.33,0.46,6.06,1.38
			s3.12,2.09,4.17,3.52c1.05,1.43,1.75,2.99,2.11,4.68c0.36,1.7,0.32,3.3-0.11,4.82H568.5c-0.04,1.48,0.13,2.91,0.49,4.3
			c0.36,1.39,0.92,2.62,1.68,3.71c0.76,1.08,1.7,1.96,2.81,2.62c1.12,0.67,2.42,1,3.9,1c1.08,0,2.07-0.18,2.98-0.54
			c0.9-0.36,1.71-0.85,2.41-1.46c0.7-0.61,1.28-1.33,1.73-2.17c0.45-0.83,0.78-1.73,1-2.71H589.82z M576.99,497.32
			c-1.12,0-2.14,0.21-3.06,0.62c-0.92,0.42-1.72,0.97-2.41,1.65c-0.69,0.69-1.25,1.49-1.68,2.41s-0.76,1.9-0.97,2.95h15.75
			c-0.07-0.97-0.32-1.91-0.73-2.81c-0.42-0.9-0.96-1.71-1.62-2.44c-0.67-0.72-1.44-1.3-2.33-1.73
			C579.06,497.54,578.07,497.32,576.99,497.32z"/>
	</g>
	<g>
		<linearGradient id="SVGID_1_" gradientUnits="userSpaceOnUse" x1="445.9611" y1="40.6099" x2="371.5498" y2="296.9154">
			<stop  offset="0" style="stop-color:#0093D8"/>
			<stop  offset="1" style="stop-color:#0056A7"/>
		</linearGradient>
		<polygon class="st0" points="290.86,53.94 290.86,147.85 329.47,170.6 369.76,194.33 409.21,217.57 448.65,194.33 448.65,326.9 
			521.74,283.84 527.58,280.39 527.58,53.91 448.65,100.39 448.65,146.87 409.18,123.63 369.76,100.42 		"/>
		<polygon class="st1" points="290.86,193.32 290.86,280.45 296.64,283.87 369.76,326.93 369.76,194.33 329.47,170.6 		"/>
	</g>
</g>
</svg>
