<svg width="800" height="260" xmlns="http://www.w3.org/2000/svg">
 <defs>
  <linearGradient id="svg_2" x1="1.06712" y1="1.10581" x2="0.85714" y2="1.89122">
   <stop offset="0" stop-color="#0093D8"/>
   <stop offset="1" stop-color="#0056A7"/>
  </linearGradient>
 </defs>
 <g>
  <title>Layer 1</title>
  <g id="svg_1" stroke="null">
   <g id="svg_3" stroke="null">
    <g id="svg_4" stroke="null">
     <path id="svg_5" d="m195.5712,85.29023c0,-27.15956 14.71027,-39.12052 33.90108,-39.12052c11.19632,0 20.63062,4.61444 26.55098,13.49911c5.92035,-8.88467 15.19356,-13.49911 26.55098,-13.49911c19.19081,0 33.90108,11.96096 33.90108,39.12052l0,47.48889l-23.99354,0l0,-47.48889c0,-11.27256 -5.11486,-15.20935 -12.31393,-15.20935c-7.03797,0 -12.15284,3.92603 -12.15284,15.20935l0,47.48889l-23.98348,0l0,-47.48889c0,-11.27256 -5.11486,-15.20935 -12.15284,-15.20935c-7.19907,0 -12.31393,3.92603 -12.31393,15.20935l0,47.48889l-23.98348,0l0,-47.48889l-0.01007,0l-0.00001,0z" stroke="null"/>
     <path id="svg_6" d="m328.95034,91.61491c0,-27.15956 17.5899,-45.4452 42.70106,-45.4452c24.78897,0 42.05667,17.59724 42.05667,45.2731l0,41.34706l-22.07044,0l0,-14.00465c-4.15834,10.42282 -13.10936,16.2312 -24.46677,16.2312c-17.5899,-0.01076 -38.22052,-14.02616 -38.22052,-43.40151zm60.76418,-1.0326c0,-12.13306 -7.36017,-20.50143 -18.23429,-20.50143s-18.23429,8.36837 -18.23429,20.50143c0,12.13306 7.36017,20.50143 18.23429,20.50143s18.23429,-8.36837 18.23429,-20.50143z" stroke="null"/>
     <path id="svg_7" d="m429.37485,84.77393c0,-26.30981 14.38807,-38.61497 35.50199,-38.61497s35.34089,12.13306 35.50199,38.77632l0,0.5163l-23.98348,0l0,-0.67764c0,-11.27256 -4.79267,-14.69305 -11.51851,-14.69305s-11.51851,3.42049 -11.51851,14.69305l0,48.00519l-23.98348,0l0,-48.00519l0,-0.00001z" stroke="null"/>
     <path id="svg_8" d="m502.78523,48.38551l25.74549,0l17.4288,59.96615l17.4288,-59.96615l25.11116,0l-28.30292,84.39361l-29.10841,0l-28.30292,-84.39361z" stroke="null"/>
     <path id="svg_9" d="m591.7013,90.58231c0,-25.62141 17.5899,-44.42335 42.53996,-44.42335s42.05667,18.79119 42.05667,44.42335l0,7.17443l-59.64656,0c1.92311,9.90651 8.95101,14.34885 17.5899,14.34885c6.87687,0 11.99174,-1.53815 15.03246,-6.15258l24.78897,0c-5.11486,17.42514 -20.14733,29.0419 -39.82143,29.0419c-24.95006,0.01076 -42.53996,-18.78043 -42.53996,-44.4126l-0.00001,0zm59.96876,-9.05677c-2.71853,-8.71257 -9.11211,-12.4665 -17.4288,-12.4665s-14.71027,3.92603 -17.11667,12.4665l34.54547,0z" stroke="null"/>
     <path id="svg_10" d="m687.97753,24.30224c0,-9.40097 6.55468,-16.4033 15.35466,-16.4033c8.79998,0 15.35466,7.00232 15.35466,16.4033s-6.55468,16.4033 -15.35466,16.4033c-8.79998,-0.01076 -15.35466,-7.01308 -15.35466,-16.4033zm3.35285,24.08326l23.98348,0l0,84.39361l-23.98348,0l0,-84.39361z" stroke="null"/>
     <path id="svg_11" d="m733.54815,99.46698l0,-80.98388l23.98348,0l0,29.9024l37.4251,0l0,23.06142l-37.4251,0l0,28.02006c0,8.88467 3.83615,11.61676 9.11211,11.61676s9.11211,-2.73209 9.11211,-11.61676l0,-2.55999l23.98348,0l0,2.55999c0,24.08326 -13.43155,35.53868 -33.10565,35.53868s-33.08552,-11.44466 -33.08552,-35.53868l-0.00001,0z" stroke="null"/>
    </g>
    <g id="svg_12" stroke="null">
     <path id="svg_13" d="m251.46564,178.49137c3.34237,0 6.12016,0.89266 8.34465,2.67798c2.22449,1.78532 3.88438,4.01697 4.97969,6.69495c1.09531,2.67798 1.6486,5.57309 1.6486,8.68534c0,3.11225 -0.5533,6.00736 -1.6486,8.68534s-2.7552,4.90963 -4.97969,6.69495c-2.22449,1.78532 -5.00227,2.67798 -8.34465,2.67798c-2.2019,0 -4.27959,-0.59109 -6.23308,-1.76119c-1.95348,-1.17011 -3.46658,-2.87099 -4.51672,-5.09057l0,6.46575l-5.62332,0l0,-53.40278l5.62332,0l0,24.60846c1.06143,-2.21959 2.56324,-3.92047 4.51672,-5.12676c1.95348,-1.2063 4.03117,-1.80945 6.23308,-1.80945zm-1.59214,31.991c2.35999,-0.04825 4.31347,-0.7479 5.87174,-2.12308c1.54698,-1.37518 2.72133,-3.08812 3.51175,-5.16295c0.79043,-2.06277 1.19693,-4.29442 1.19693,-6.69495s-0.38392,-4.60806 -1.16306,-6.65876c-0.77913,-2.05071 -1.94219,-3.75158 -3.51175,-5.12676c-1.56956,-1.37518 -3.53434,-2.05071 -5.89432,-2.05071c-1.01626,0 -2.02123,0.18094 -2.99233,0.5549c-0.98239,0.37395 -1.87444,0.91679 -2.68745,1.6285c-0.81301,0.72378 -1.52439,1.59231 -2.13415,2.61767c-0.60976,1.02535 -1.06143,2.14721 -1.34372,3.36557l0,11.42363c0.56459,2.48497 1.71635,4.47536 3.42142,5.97117c1.69377,1.50787 3.61338,2.25578 5.72495,2.25578l-0.00001,-0.00001z" stroke="null"/>
     <path id="svg_14" d="m302.13198,201.60403c-0.12421,1.78532 -0.57588,3.47414 -1.34372,5.05439c-0.77913,1.59231 -1.82927,2.96749 -3.15041,4.14966c-1.32114,1.17011 -2.86812,2.11102 -4.61835,2.81067c-1.75023,0.69965 -3.64725,1.04948 -5.67978,1.04948c-3.46658,0 -6.35729,-0.89266 -8.6834,-2.67798c-2.32611,-1.78532 -4.06505,-4.01697 -5.22811,-6.69495c-1.16306,-2.67798 -1.73894,-5.58516 -1.73894,-8.70947s0.57588,-6.04355 1.73894,-8.70947c1.16306,-2.67798 2.90199,-4.90963 5.22811,-6.69495c2.32611,-1.78532 5.21681,-2.67798 8.6834,-2.67798c2.60841,0 4.88935,0.5549 6.84283,1.66469s3.52304,2.52116 4.70868,4.24617c1.18564,1.72501 1.97607,3.60683 2.38257,5.64547c0.40651,2.05071 0.36134,3.98078 -0.12421,5.81435l-23.10304,0c-0.04517,1.78532 0.14679,3.51032 0.5533,5.18708c0.40651,1.67675 1.03885,3.1605 1.89702,4.47536c0.85818,1.3028 1.91961,2.36434 3.173,3.1605c1.26468,0.80822 2.73262,1.2063 4.4038,1.2063c1.21952,0 2.3374,-0.21713 3.36496,-0.6514c1.01626,-0.43427 1.9309,-1.02535 2.72133,-1.76119c0.79043,-0.73584 1.44535,-1.60438 1.95348,-2.61767c0.50813,-1.00123 0.88076,-2.08689 1.12918,-3.26907l4.88935,0l0.00001,0.00001zm-14.48739,-18.80617c-1.26468,0 -2.41645,0.25332 -3.45529,0.7479c-1.03885,0.50664 -1.94219,1.17011 -2.72133,1.99039c-0.77913,0.83235 -1.40018,1.79738 -1.89702,2.90718s-0.85818,2.29196 -1.09531,3.55858l17.7846,0c-0.07904,-1.17011 -0.36134,-2.30403 -0.8243,-3.3897c-0.47426,-1.08567 -1.08401,-2.06277 -1.82927,-2.94337c-0.75655,-0.86853 -1.62602,-1.56819 -2.63099,-2.08689c-1.00497,-0.51871 -2.11157,-0.78409 -3.33108,-0.78409l-0.00001,0z" stroke="null"/>
     <path id="svg_15" d="m329.07423,178.94976l5.67978,0l-12.71457,35.24801l-3.173,9.01104c-0.6888,1.83357 -1.41148,3.34144 -2.16803,4.53568c-0.75655,1.19423 -1.52439,2.14721 -2.32611,2.8348c-0.79043,0.69965 -1.60344,1.17011 -2.41645,1.43549c-0.81301,0.26539 -1.62602,0.39808 -2.43903,0.39808c-0.48555,0 -0.98239,-0.04825 -1.46793,-0.13269s-0.9598,-0.19301 -1.40018,-0.3257l0,-3.84809c1.38889,0.34983 2.73262,0.08444 4.03117,-0.78409c1.29856,-0.86853 2.35999,-2.61767 3.173,-5.22327l2.7552,-7.90125l-12.71457,-35.24801l5.62332,0l9.7787,27.68452l9.7787,-27.68452z" stroke="null"/>
     <path id="svg_16" d="m352.91123,178.49137c3.62467,0 6.63958,0.89266 9.04474,2.67798c2.40515,1.78532 4.20055,4.01697 5.40878,6.69495c1.19693,2.67798 1.80669,5.58516 1.80669,8.70947s-0.59847,6.04355 -1.80669,8.70947c-1.19693,2.67798 -3.00362,4.90963 -5.40878,6.69495c-2.40515,1.78532 -5.42007,2.67798 -9.04474,2.67798c-3.62467,0 -6.63958,-0.89266 -9.04474,-2.67798c-2.40515,-1.78532 -4.21184,-4.01697 -5.40878,-6.69495c-1.19693,-2.67798 -1.80669,-5.58516 -1.80669,-8.70947s0.59847,-6.04355 1.80669,-8.70947c1.19693,-2.67798 3.00362,-4.90963 5.40878,-6.69495c2.40515,-1.78532 5.42007,-2.67798 9.04474,-2.67798zm0,31.20691c2.32611,0 4.24572,-0.63934 5.77011,-1.93008c1.52439,-1.27868 2.67616,-2.90718 3.45529,-4.86138c0.77913,-1.9542 1.15176,-4.06522 1.12918,-6.33306c-0.02258,-2.26784 -0.40651,-4.3668 -1.16306,-6.29687c-0.75655,-1.93008 -1.90832,-3.55858 -3.45529,-4.86138c-1.54698,-1.3028 -3.46658,-1.9542 -5.74753,-1.9542c-2.28094,0 -4.20055,0.63934 -5.74753,1.93008c-1.54698,1.27868 -2.69874,2.89511 -3.45529,4.82519c-0.75655,1.94214 -1.12918,4.05316 -1.12918,6.33306c0,2.2799 0.38392,4.39092 1.16306,6.33306c0.77913,1.94214 1.9309,3.55858 3.45529,4.86138c1.53569,1.3028 3.444,1.9542 5.72495,1.9542z" stroke="null"/>
     <path id="svg_17" d="m381.94247,185.93422c0.56459,-1.21836 1.27597,-2.29196 2.11157,-3.23288c0.83559,-0.94091 1.76152,-1.71294 2.77778,-2.35228c1.01626,-0.62727 2.10028,-1.10979 3.24075,-1.43549c1.14047,-0.3257 2.28094,-0.49458 3.42142,-0.49458c1.50181,0 2.98104,0.27745 4.42639,0.82028c1.44535,0.54283 2.73262,1.38724 3.85051,2.5091c1.11789,1.13392 2.02123,2.55735 2.68745,4.27029c0.67751,1.72501 1.00497,3.72746 1.00497,6.04355l0,22.13555l-5.67978,0l0,-20.76038c0,-1.86976 -0.24842,-3.49826 -0.73397,-4.86138c-0.48555,-1.37518 -1.14047,-2.49704 -1.95348,-3.3897c-0.81301,-0.89266 -1.73894,-1.55612 -2.77778,-1.99039c-1.03885,-0.43427 -2.11157,-0.6514 -3.20687,-0.6514c-1.01626,0 -2.02123,0.16888 -2.99233,0.51871c-0.98239,0.34983 -1.88573,0.86853 -2.72133,1.56819c-0.83559,0.69965 -1.55827,1.55612 -2.16803,2.58148c-0.60976,1.02535 -1.03885,2.1834 -1.28727,3.49826l0,23.49867l-5.62332,0l0,-35.24801l5.62332,0l0,6.9724l0,0.00001z" stroke="null"/>
     <path id="svg_18" d="m443.90061,160.79499l0,53.40278l-5.74753,0l0,-6.45369c-1.06143,2.21959 -2.55195,3.92047 -4.49414,5.09057c-1.9309,1.17011 -3.9973,1.76119 -6.1992,1.76119c-3.34237,0 -6.12016,-0.89266 -8.34465,-2.67798c-2.22449,-1.78532 -3.88438,-4.01697 -4.97969,-6.69495s-1.6486,-5.57309 -1.6486,-8.68534c0,-3.11225 0.56459,-6.00736 1.68248,-8.68534c1.11789,-2.67798 2.78908,-4.90963 5.01356,-6.69495c2.22449,-1.78532 4.97969,-2.67798 8.27689,-2.67798c2.2019,0 4.2683,0.60315 6.1992,1.79738c1.9309,1.19423 3.43271,2.90718 4.49414,5.12676l0,-24.60846l5.74753,0l0.00001,0.00001zm-5.73624,30.09712c-0.2823,-1.26661 -0.72268,-2.38847 -1.30985,-3.3897c-0.58717,-1.00123 -1.29856,-1.86976 -2.11157,-2.61767c-0.81301,-0.73584 -1.70506,-1.3028 -2.65357,-1.70088c-0.9598,-0.38602 -1.96477,-0.59109 -3.0262,-0.59109c-2.35999,0 -4.32476,0.69965 -5.89432,2.08689c-1.56956,1.3993 -2.74391,3.11225 -3.51175,5.16295c-0.77913,2.05071 -1.16306,4.27029 -1.16306,6.65876s0.38392,4.62012 1.16306,6.69495c0.77913,2.06277 1.94219,3.78777 3.51175,5.16295c1.56956,1.37518 3.53434,2.07483 5.89432,2.12308c2.12286,0 4.01988,-0.7479 5.71365,-2.25578c1.69377,-1.49581 2.82295,-3.49826 3.38754,-5.97117l0,-11.36332l0,0.00003z" stroke="null"/>
     <path id="svg_19" d="m476.04838,176.46479c0,-1.83357 0.21454,-3.32938 0.64363,-4.49949c0.42909,-1.17011 0.98239,-2.09896 1.68248,-2.77448c0.6888,-0.67553 1.47923,-1.15805 2.3487,-1.43549c0.88076,-0.27745 1.76152,-0.4222 2.65357,-0.4222c0.56459,0 1.14047,0.06031 1.71635,0.16888c0.56459,0.10857 1.09531,0.2292 1.59214,0.36189l0,3.92047c-1.42277,-0.39808 -2.60841,-0.19301 -3.54563,0.59109c-0.93722,0.78409 -1.41148,2.15927 -1.41148,4.11347l0,2.41259l3.29721,0l0,3.84809l-3.29721,0l0,31.47229l-5.67978,0l0,-31.47229l-2.81166,0l0,-3.84809l2.81166,0l0,-2.43672l0.00002,-0.00001z" stroke="null"/>
     <path id="svg_20" d="m521.0914,178.94976l0,35.24801l-5.67978,0l0,-6.98446c-0.53071,1.21836 -1.20822,2.29196 -2.04382,3.23288c-0.83559,0.94091 -1.75023,1.72501 -2.74391,2.35228c-0.99368,0.62727 -2.04382,1.10979 -3.15041,1.43549c-1.09531,0.3257 -2.22449,0.49458 -3.36496,0.49458c-1.46793,0 -2.90199,-0.27745 -4.31347,-0.82028c-1.41148,-0.54283 -2.65357,-1.38724 -3.76017,-2.5091c-1.09531,-1.13392 -1.97607,-2.55735 -2.63099,-4.27029c-0.65492,-1.71294 -0.98239,-3.72746 -0.98239,-6.04355l0,-22.13555l5.62332,0l0,20.76038c0,1.86976 0.23713,3.4862 0.70009,4.82519c0.47426,1.35105 1.09531,2.47291 1.89702,3.36557c0.79043,0.89266 1.70506,1.55612 2.72133,1.99039c1.01626,0.43427 2.05511,0.6514 3.11654,0.6514c0.98239,0 1.94219,-0.16888 2.90199,-0.51871c0.9598,-0.34983 1.84056,-0.86853 2.65357,-1.56819c0.81301,-0.69965 1.5131,-1.55612 2.11157,-2.58148c0.58717,-1.02535 1.00497,-2.1834 1.25339,-3.49826l0,-23.43836l5.69107,0l0,0.01206l0.00001,0z" stroke="null"/>
     <path id="svg_21" d="m536.67409,205.31942c0,1.9542 0.46296,3.32938 1.41148,4.11347c0.93722,0.78409 2.12286,0.9771 3.54563,0.59109l0,3.84809c-0.48555,0.13269 -1.01626,0.25332 -1.59214,0.36189c-0.57588,0.10857 -1.16306,0.15682 -1.77281,0.15682c-0.89205,0 -1.77281,-0.13269 -2.63099,-0.38602c-0.85818,-0.26539 -1.62602,-0.73584 -2.32611,-1.43549s-1.25339,-1.61644 -1.68248,-2.77448c-0.42909,-1.15805 -0.64363,-2.64179 -0.64363,-4.47536l0,-22.59395l-2.56324,0l0,-3.84809c1.14047,-0.34983 2.02123,-1.04948 2.65357,-2.12308c0.63234,-1.06154 1.05014,-2.29196 1.25339,-3.69127l4.33605,0l0,5.81435l3.29721,0l0,3.84809l-3.29721,0l0,22.59395l0.01129,0l-0.00001,-0.00001z" stroke="null"/>
     <path id="svg_22" d="m576.45513,178.94976l0,35.24801l-5.67978,0l0,-6.98446c-0.53071,1.21836 -1.20822,2.29196 -2.04382,3.23288c-0.83559,0.94091 -1.75023,1.72501 -2.74391,2.35228c-0.99368,0.62727 -2.04382,1.10979 -3.15041,1.43549c-1.09531,0.3257 -2.22449,0.49458 -3.36496,0.49458c-1.46793,0 -2.90199,-0.27745 -4.31347,-0.82028c-1.41148,-0.54283 -2.65357,-1.38724 -3.76017,-2.5091c-1.09531,-1.13392 -1.97607,-2.55735 -2.63099,-4.27029c-0.65492,-1.71294 -0.98239,-3.72746 -0.98239,-6.04355l0,-22.13555l5.62332,0l0,20.76038c0,1.86976 0.23713,3.4862 0.70009,4.82519c0.47426,1.35105 1.09531,2.47291 1.89702,3.36557c0.79043,0.89266 1.70506,1.55612 2.72133,1.99039c1.01626,0.43427 2.05511,0.6514 3.11654,0.6514c0.98239,0 1.94219,-0.16888 2.90199,-0.51871c0.9598,-0.34983 1.84056,-0.86853 2.65357,-1.56819c0.81301,-0.69965 1.5131,-1.55612 2.11157,-2.58148c0.58717,-1.02535 1.00497,-2.1834 1.25339,-3.49826l0,-23.43836l5.69107,0l0,0.01206l0.00001,0z" stroke="null"/>
     <path id="svg_23" d="m590.99897,185.47583c1.06143,-2.30403 2.58582,-4.05316 4.58447,-5.22327c1.99865,-1.17011 4.07634,-1.76119 6.23308,-1.76119c1.06143,0 2.08898,0.13269 3.08266,0.38602c0.99368,0.26539 1.96477,0.67553 2.90199,1.24249l-1.89702,4.43917c-0.81301,-0.60315 -1.70506,-1.04948 -2.68745,-1.3028c-0.98239,-0.26539 -1.9309,-0.39808 -2.86812,-0.39808c-1.06143,0 -2.10028,0.16888 -3.11654,0.49458c-1.01626,0.3257 -1.94219,0.79616 -2.77778,1.3993c-0.83559,0.61521 -1.55827,1.38724 -2.16803,2.31609c-0.60976,0.94091 -1.03885,1.99039 -1.28727,3.1605l0,23.95706l-5.62332,0l0,-35.24801l5.62332,0l0,6.53813l0.00001,0.00001z" stroke="null"/>
     <path id="svg_24" d="m641.11201,201.60403c-0.12421,1.78532 -0.57588,3.47414 -1.34372,5.05439c-0.77913,1.59231 -1.82927,2.96749 -3.15041,4.14966c-1.32114,1.17011 -2.86812,2.11102 -4.61835,2.81067c-1.75023,0.69965 -3.64725,1.04948 -5.67978,1.04948c-3.46658,0 -6.35729,-0.89266 -8.67211,-2.67798s-4.06505,-4.01697 -5.22811,-6.69495c-1.16306,-2.67798 -1.73894,-5.58516 -1.73894,-8.70947s0.57588,-6.04355 1.73894,-8.70947c1.16306,-2.67798 2.90199,-4.90963 5.22811,-6.69495c2.32611,-1.78532 5.21681,-2.67798 8.67211,-2.67798c2.60841,0 4.88935,0.5549 6.84283,1.66469s3.52304,2.52116 4.70868,4.24617c1.18564,1.72501 1.97607,3.60683 2.38257,5.64547c0.40651,2.05071 0.36134,3.98078 -0.12421,5.81435l-23.09174,0c-0.04517,1.78532 0.14679,3.51032 0.5533,5.18708c0.40651,1.67675 1.03885,3.1605 1.89702,4.47536c0.85818,1.3028 1.91961,2.36434 3.173,3.1605c1.26468,0.80822 2.73262,1.2063 4.4038,1.2063c1.21952,0 2.3374,-0.21713 3.36496,-0.6514c1.01626,-0.43427 1.9309,-1.02535 2.72133,-1.76119c0.79043,-0.73584 1.44535,-1.60438 1.95348,-2.61767c0.50813,-1.00123 0.88076,-2.08689 1.12918,-3.26907l4.87806,0l0,0.00001zm-14.48739,-18.80617c-1.26468,0 -2.41645,0.25332 -3.45529,0.7479c-1.03885,0.50664 -1.94219,1.17011 -2.72133,1.99039c-0.77913,0.83235 -1.41148,1.79738 -1.89702,2.90718s-0.85818,2.29196 -1.09531,3.55858l17.7846,0c-0.07904,-1.17011 -0.36134,-2.30403 -0.8243,-3.3897c-0.47426,-1.08567 -1.08401,-2.06277 -1.82927,-2.94337c-0.75655,-0.86853 -1.62602,-1.56819 -2.63099,-2.08689c-0.99368,-0.51871 -2.11157,-0.78409 -3.33108,-0.78409l-0.00001,0z" stroke="null"/>
    </g>
    <g id="svg_25" stroke="null">
     <polygon id="svg_26" class="st0" points="4.299266815185547,4.118075370788574 4.299266815185547,79.11713123321533 33.1630744934082,97.28587055206299 63.28275680541992,116.23730182647705 92.77445602416992,134.79738330841064 122.25842666625977,116.23730182647705 122.25842666625977,222.1112413406372 176.89845657348633,187.72238636016846 181.26430130004883,184.9671220779419 181.26430130004883,4.094110488891602 122.25842666625977,41.2142915725708 122.25842666625977,78.33443927764893 92.75202560424805,59.77436542510986 63.28275680541992,41.23825550079346 " fill="url(#svg_2)" stroke="null"/>
     <polygon id="svg_27" class="st1" points="4.299266815185547,115.4306993484497 4.299266815185547,185.0150499343872 8.620262145996094,187.74634265899658 63.28275680541992,222.13519763946533 63.28275680541992,116.23730182647705 33.1630744934082,97.28587055206299 " fill="#F99B1C" stroke="null"/>
    </g>
   </g>
  </g>
 </g>
</svg>